<svg xmlns="http://www.w3.org/2000/svg" xmlns:xlink="http://www.w3.org/1999/xlink" width="61" height="61" viewBox="0 0 61 61">
  <defs>
    <filter id="Ellipse_11" x="0" y="0" width="61" height="61" filterUnits="userSpaceOnUse">
      <feOffset dy="3" input="SourceAlpha"/>
      <feGaussianBlur stdDeviation="3" result="blur"/>
      <feFlood flood-opacity="0.161"/>
      <feComposite operator="in" in2="blur"/>
      <feComposite in="SourceGraphic"/>
    </filter>
  </defs>
  <g id="Group_43826" data-name="Group 43826" transform="translate(8.797 5.752)">
    <g transform="matrix(1, 0, 0, 1, -8.8, -5.75)" filter="url(#Ellipse_11)">
      <circle id="Ellipse_11-2" data-name="Ellipse 11" cx="21.5" cy="21.5" r="21.5" transform="translate(9 6)" fill="#364ea2"/>
    </g>
    <g id="Layer_2" data-name="Layer 2" transform="translate(11.489 11.488)">
      <g id="invisible_box" data-name="invisible box" transform="translate(0 0)">
        <rect id="Rectangle_559" data-name="Rectangle 559" width="20" height="20" transform="translate(-0.285 -0.24)" fill="none"/>
      </g>
      <g id="icons_Q2" data-name="icons Q2" transform="translate(0.811 1.907)">
        <path id="Path_55" data-name="Path 55" d="M18.84,18.707a2.133,2.133,0,1,1-2.133,2.133,2.133,2.133,0,0,1,2.133-2.133m0-1.707a3.84,3.84,0,1,0,3.84,3.84A3.84,3.84,0,0,0,18.84,17Z" transform="translate(-9.453 -12.307)" fill="#fbfcff"/>
        <path id="Path_56" data-name="Path 56" d="M13.136,7.707,14.331,9.2l.512.64h4.224v9.814H3.707V9.84H7.931l.512-.64L9.637,7.707h3.5M13.947,6H8.827L7.12,8.133H2.853A.853.853,0,0,0,2,8.987v11.52a.853.853,0,0,0,.853.853H19.92a.853.853,0,0,0,.853-.853V8.987a.853.853,0,0,0-.853-.853H15.654Z" transform="translate(-2 -6)" fill="#fbfcff"/>
      </g>
    </g>
  </g>
</svg>
