<svg xmlns="http://www.w3.org/2000/svg" width="19.995" height="22.75" viewBox="0 0 19.995 22.75">
  <g id="bin" transform="translate(0)">
    <g id="Group_43482" data-name="Group 43482" transform="translate(1.387 6.665)">
      <g id="Group_43481" data-name="Group 43481">
        <path id="Path_51837" data-name="Path 51837" d="M62.205,150l1.181,14.251a2.01,2.01,0,0,0,1.992,1.834H76.255a2.01,2.01,0,0,0,1.992-1.834L79.427,150Zm5.278,13.419a.666.666,0,0,1-.665-.625l-.667-10.753a.666.666,0,0,1,.624-.707.656.656,0,0,1,.707.624l.666,10.753A.667.667,0,0,1,67.483,163.419Zm4-.667a.667.667,0,0,1-1.333,0V152a.667.667,0,0,1,1.333,0Zm4-10.711-.667,10.753a.666.666,0,0,1-1.33-.083l.667-10.753a.677.677,0,0,1,.707-.624A.666.666,0,0,1,75.48,152.041Z" transform="translate(-62.205 -150)" fill="#fb6f6f"/>
      </g>
    </g>
    <g id="Group_43484" data-name="Group 43484" transform="translate(0)">
      <g id="Group_43483" data-name="Group 43483">
        <path id="Path_51838" data-name="Path 51838" d="M49.662,2.666h-4V2a2,2,0,0,0-2-2H38.332a2,2,0,0,0-2,2v.667h-4a1.333,1.333,0,1,0,0,2.666H49.662a1.333,1.333,0,1,0,0-2.666Zm-5.332,0H37.665V2a.667.667,0,0,1,.667-.667h5.332A.667.667,0,0,1,44.33,2Z" transform="translate(-31)" fill="#fb6f6f"/>
      </g>
    </g>
  </g>
</svg>
