<svg id="edit" xmlns="http://www.w3.org/2000/svg" width="26.001" height="26" viewBox="0 0 26.001 26">
  <path id="Path_51839" data-name="Path 51839" d="M20.584,94.483A1.083,1.083,0,0,0,19.5,95.566v8.667a1.084,1.084,0,0,1-1.083,1.083H3.25a1.084,1.084,0,0,1-1.083-1.083V89.066A1.084,1.084,0,0,1,3.25,87.983h8.667a1.083,1.083,0,0,0,0-2.167H3.25A3.254,3.254,0,0,0,0,89.066v15.167a3.254,3.254,0,0,0,3.25,3.25H18.417a3.254,3.254,0,0,0,3.25-3.25V95.566a1.082,1.082,0,0,0-1.083-1.083Zm0,0" transform="translate(0 -81.484)" fill="#364ea2"/>
  <path id="Path_51840" data-name="Path 51840" d="M182.733,76.834a.548.548,0,0,0-.148.276l-.766,3.831a.541.541,0,0,0,.532.648.515.515,0,0,0,.106-.011l3.83-.766a.539.539,0,0,0,.277-.149l8.572-8.572-3.83-3.83Zm0,0" transform="translate(-172.576 -64.821)" fill="#364ea2"/>
  <path id="Path_51841" data-name="Path 51841" d="M396.775,1.293a2.71,2.71,0,0,0-3.83,0l-1.5,1.5,3.83,3.83,1.5-1.5a2.708,2.708,0,0,0,0-3.83Zm0,0" transform="translate(-371.567 -0.501)" fill="#364ea2"/>
</svg>
