<svg xmlns="http://www.w3.org/2000/svg" width="70.235" height="34.596" viewBox="0 0 70.235 34.596">
  <g id="malaysia_3_" data-name="malaysia (3)" transform="translate(0 0)">
    <g id="Icons" transform="translate(0 0)">
      <path id="Path_54060" data-name="Path 54060" d="M1814.663,1400.1c-.518-1.788.661-.68,1.5-.449.521.1.938-.092,1.373.111,1.534.974,2.189,1.533,2.818-.472.6-1.572.809-2.356,1.122-2.57,2.478-1.607,5.358.321,6.538-3.257.8-1.084,2.2-.828,2.616-2.2,1.209-1.788,2.56,3.558,3.112-.291a1.356,1.356,0,0,1,2-.979c1.267-.37.243-1.88.38-2.04.545-.755,2.077-.083,2.567-1.55.563-2.747,1.044-1.878,1.839-3.371.327-.775.585-.775,1.154-.632a5.733,5.733,0,0,1,1.313.237c.587.279.677,1.061,1.283,1.365.856.671-.022,1.038.579,1.529a1.71,1.71,0,0,0,.561.3c1.361.311,1.721,1.059,2.647,1.513,3.849,1.181.912,1.982-.3,1.992-2.221-.025.5.415.724.893.23,2.8-8.375.4-10.037,1.279-2.572,1.246-1.128,3.189-1.767,3.945-.277.372-.8.507-1.094.881-.752,2.027-.651,1.055-1.884,1.981-.65.741.343,2.069-.661,2.808-.433.306-.875.106-1.373.286-2.267,1.251-2.5.032-4.367-.649-2.173-.705-3.35,1.767-5.414,1.544a7.141,7.141,0,0,0-1.243.043c-3.483,1.241-2.578.784-4.3-.76A6.436,6.436,0,0,1,1814.663,1400.1Zm-33.426-31.636c-2.292-.014-1.4,1.976-.9,3.308a6.589,6.589,0,0,1,1.037,1.986c.208,2.694,1.18,2.963.418,4.3a.8.8,0,0,0-.062.535,1.509,1.509,0,0,0,.475.706c1.691,1.206-.146,3.474,1.287,4.74,1.026,1.174.034,1.254,1.44,2.162a13.6,13.6,0,0,1,2.3,2.4c.267.364.752.7.948,1.179.32,1.218-1.691,1.911,1.617,3.267,1.963.679,2.057,1.759,3.556,2.17a2.371,2.371,0,0,1,.739.5c.991,1.265,1.389,1.092,2.306,1.5.978.425,1.357,1.74,2.529,1.777,2.014-.037,2.52,1.083,4.086,1.195.969.192.893.929,1.762.61a3.3,3.3,0,0,1,1.486-.365c.875.2,2.414.821,2.471-.412-.194-1.015-1.109-1.568-1.307-2.506a6.68,6.68,0,0,0-1.25-3.045c-.273-.5-.346-1.131-.831-1.394-3.989-1.472-2.523-1.493-2.019-4.7-.735-3.492-.9-2.313-.217-5.539.255-1.277.349-2.51-.518-3.5-1.72-1.856-1.489-2.244-2.263-3.537-.81-1.417-2.883-1.311-3.784-2.728-.7-.926-1.75-2.609-3.044-2.074-.337.257-.453.651-.8.929-.791.6-.51,1.816-1.528,1.526-2.5-1-3.042,1.92-4.6,1.232-.451-.394,2.346-3.065-.719-3.764-.861-.229-.939-1.112-1.661-1.375C1782.507,1369.369,1782.478,1368.387,1781.237,1368.466Z" transform="translate(-1779.741 -1368.461)" fill="#364ea2" fill-rule="evenodd"/>
    </g>
  </g>
</svg>
