<svg xmlns="http://www.w3.org/2000/svg" width="14" height="10" viewBox="0 0 14 10">
  <path id="Path_92557" data-name="Path 92557" d="M2.933,1.491A7.081,7.081,0,0,1,7,0a7.081,7.081,0,0,1,4.067,1.491,14.254,14.254,0,0,1,2.56,2.437l0,.006a1.729,1.729,0,0,1,0,2.133l0,.006a14.254,14.254,0,0,1-2.56,2.437A7.081,7.081,0,0,1,7,10,7.081,7.081,0,0,1,2.933,8.509,14.256,14.256,0,0,1,.373,6.072l0-.006a1.729,1.729,0,0,1,0-2.133l0-.006A14.257,14.257,0,0,1,2.933,1.491ZM7,7.25A2.25,2.25,0,1,0,4.75,5,2.25,2.25,0,0,0,7,7.25Z" fill="#364ea2" fill-rule="evenodd"/>
</svg>
