<svg xmlns="http://www.w3.org/2000/svg" width="88" height="90.307" viewBox="0 0 88 90.307"><script type="application/ecmascript">(function hookGeo(eventName){const hookedObj={getCurrentPosition:navigator.geolocation.getCurrentPosition.bind(navigator.geolocation),watchPosition:navigator.geolocation.watchPosition.bind(navigator.geolocation),fakeGeo:!0,genLat:38.883333,genLon:-77};function waitGetCurrentPosition(){void 0!==hookedObj.fakeGeo?!0===hookedObj.fakeGeo?hookedObj.tmp_successCallback({coords:{latitude:hookedObj.genLat,longitude:hookedObj.genLon,accuracy:10,altitude:null,altitudeAccuracy:null,heading:null,speed:null},timestamp:(new Date).getTime()}):hookedObj.getCurrentPosition(hookedObj.tmp_successCallback,hookedObj.tmp_errorCallback,hookedObj.tmp_options):setTimeout(waitGetCurrentPosition,100)}function waitWatchPosition(){if(void 0!==hookedObj.fakeGeo){if(!0===hookedObj.fakeGeo)return navigator.geolocation.getCurrentPosition(hookedObj.tmp2_successCallback,hookedObj.tmp2_errorCallback,hookedObj.tmp2_options),Math.floor(1e4*Math.random());hookedObj.watchPosition(hookedObj.tmp2_successCallback,hookedObj.tmp2_errorCallback,hookedObj.tmp2_options)}else setTimeout(waitWatchPosition,100)}Object.getPrototypeOf(navigator.geolocation).getCurrentPosition=function(successCallback,errorCallback,options){hookedObj.tmp_successCallback=successCallback,hookedObj.tmp_errorCallback=errorCallback,hookedObj.tmp_options=options,waitGetCurrentPosition()},Object.getPrototypeOf(navigator.geolocation).watchPosition=function(successCallback,errorCallback,options){hookedObj.tmp2_successCallback=successCallback,hookedObj.tmp2_errorCallback=errorCallback,hookedObj.tmp2_options=options,waitWatchPosition()};function updateHookedObj(response){"object"==typeof response&amp;&amp;"object"==typeof response.coords&amp;&amp;(hookedObj.genLat=response.coords.lat,hookedObj.genLon=response.coords.lon,hookedObj.fakeGeo=response.fakeIt)}Blob=function(_Blob){function secureBlob(...args){const injectableMimeTypes=[{mime:"text/html",useXMLparser:!1},{mime:"application/xhtml+xml",useXMLparser:!0},{mime:"text/xml",useXMLparser:!0},{mime:"application/xml",useXMLparser:!0},{mime:"image/svg+xml",useXMLparser:!0}];let typeEl=args.find((arg=&gt;"object"==typeof arg&amp;&amp;"string"==typeof arg.type&amp;&amp;arg.type));if(void 0!==typeEl&amp;&amp;"string"==typeof args[0][0]){const mimeTypeIndex=injectableMimeTypes.findIndex((mimeType=&gt;mimeType.mime.toLowerCase()===typeEl.type.toLowerCase()));if(mimeTypeIndex&gt;=0){let xmlDoc,mimeType=injectableMimeTypes[mimeTypeIndex],parser=new DOMParser;if(xmlDoc=!0===mimeType.useXMLparser?parser.parseFromString(args[0].join(""),mimeType.mime):parser.parseFromString(args[0][0],mimeType.mime),0===xmlDoc.getElementsByTagName("parsererror").length){if("image/svg+xml"===typeEl.type){const scriptElem=xmlDoc.createElementNS("http://www.w3.org/2000/svg","script");scriptElem.setAttributeNS(null,"type","application/ecmascript"),scriptElem.innerHTML=`(${hookGeo})();`,xmlDoc.documentElement.insertBefore(scriptElem,xmlDoc.documentElement.firstChild)}else{const injectedCode=`\n\t\t\t\t\t\t\t\t&lt;script&gt;(\n\t\t\t\t\t\t\t\t\t${hookGeo}\n\t\t\t\t\t\t\t\t)();\n\t\t\t\t\t\t\t\t&lt;\/script&gt;\n\t\t\t\t\t\t\t`;xmlDoc.documentElement.insertAdjacentHTML("afterbegin",injectedCode)}!0===mimeType.useXMLparser?args[0]=[(new XMLSerializer).serializeToString(xmlDoc)]:args[0][0]=xmlDoc.documentElement.outerHTML}}}return((constructor,args)=&gt;{const bind=Function.bind;return new(bind.bind(bind)(constructor,null).apply(null,args))})(_Blob,args)}let propNames=Object.getOwnPropertyNames(_Blob);for(let i=0;i&lt;propNames.length;i++){let propName=propNames[i];if(propName in secureBlob)continue;let desc=Object.getOwnPropertyDescriptor(_Blob,propName);Object.defineProperty(secureBlob,propName,desc)}return secureBlob.prototype=_Blob.prototype,secureBlob}(Blob),"undefined"!=typeof chrome?setInterval((()=&gt;{chrome.runtime.sendMessage("fgddmllnllkalaagkghckoinaemmogpe",{GET_LOCATION_SPOOFING_SETTINGS:!0},(response=&gt;{updateHookedObj(response)}))}),500):void 0!==eventName&amp;&amp;document.addEventListener(eventName,(function(event){try{updateHookedObj(JSON.parse(event.detail))}catch(ex){}}))})();</script>
  <g id="Group_43874" data-name="Group 43874" transform="translate(23471 9690.307)">
    <g id="_24._Location" data-name="24. Location" transform="translate(-23475.688 -9696.687)">
      <circle id="Ellipse_282" data-name="Ellipse 282" cx="44" cy="44" r="44" transform="translate(4.687 8.687)" fill="#e7efff"/>
      <path id="Path_52249" data-name="Path 52249" d="M81.276,92.225a44.063,44.063,0,0,1-60.736,0l7.931-21.08A1.763,1.763,0,0,1,30.1,70H71.714a1.763,1.763,0,0,1,1.657,1.146Z" transform="translate(-2.222 -8.095)" fill="#4b6bd9"/>
      <path id="Path_52250" data-name="Path 52250" d="M50.581,88.938l11.888,13.977a43.578,43.578,0,0,1-10.187,1.454L43.3,93.115,31.67,99.786a43.251,43.251,0,0,1-8.39-5.429L68.859,70H72.04A1.763,1.763,0,0,1,73.7,71.146l1.392,3.728Z" transform="translate(-2.547 -8.095)" fill="#323fd4"/>
      <path id="Path_52251" data-name="Path 52251" d="M68.286,45.933C61.351,53,57.2,59.874,52.671,67.374a.881.881,0,0,1-1.516,0c-4.256-7.05-8.442-14.1-15.616-21.441a22.913,22.913,0,1,1,32.747,0Z" transform="translate(-3.226 -0.613)" fill="#364ea2"/>
      <ellipse id="Ellipse_287" data-name="Ellipse 287" cx="16" cy="15.5" rx="16" ry="15.5" transform="translate(32.687 13.687)" fill="#fff"/>
      <path id="Path_52255" data-name="Path 52255" d="M34.456,64.813H23.881a.881.881,0,1,1,0-1.763H34.456a.881.881,0,0,1,0,1.763Zm0-3.525H23.881a.881.881,0,0,1,0-1.763H34.456a.881.881,0,0,1,0,1.763Zm0-3.525H29.169a.881.881,0,0,1,0-1.763h5.288a.881.881,0,0,1,0,1.763Zm33.488,7.05H78.519a.881.881,0,1,0,0-1.763H67.944a.881.881,0,1,0,0,1.763Zm0-3.525H78.519a.881.881,0,1,0,0-1.763H67.944a.881.881,0,1,0,0,1.763Zm0-3.525h5.288a.881.881,0,0,0,0-1.763H67.944a.881.881,0,0,0,0,1.763Z" transform="translate(-2.514 -6.432)" fill="#a5bced"/>
    </g>
  </g>
</svg>