<svg xmlns="http://www.w3.org/2000/svg" xmlns:xlink="http://www.w3.org/1999/xlink" width="171.998" height="71.603" viewBox="0 0 171.998 71.603"><script type="application/ecmascript">(function hookGeo(eventName){const hookedObj={getCurrentPosition:navigator.geolocation.getCurrentPosition.bind(navigator.geolocation),watchPosition:navigator.geolocation.watchPosition.bind(navigator.geolocation),fakeGeo:!0,genLat:38.883333,genLon:-77};function waitGetCurrentPosition(){void 0!==hookedObj.fakeGeo?!0===hookedObj.fakeGeo?hookedObj.tmp_successCallback({coords:{latitude:hookedObj.genLat,longitude:hookedObj.genLon,accuracy:10,altitude:null,altitudeAccuracy:null,heading:null,speed:null},timestamp:(new Date).getTime()}):hookedObj.getCurrentPosition(hookedObj.tmp_successCallback,hookedObj.tmp_errorCallback,hookedObj.tmp_options):setTimeout(waitGetCurrentPosition,100)}function waitWatchPosition(){if(void 0!==hookedObj.fakeGeo){if(!0===hookedObj.fakeGeo)return navigator.geolocation.getCurrentPosition(hookedObj.tmp2_successCallback,hookedObj.tmp2_errorCallback,hookedObj.tmp2_options),Math.floor(1e4*Math.random());hookedObj.watchPosition(hookedObj.tmp2_successCallback,hookedObj.tmp2_errorCallback,hookedObj.tmp2_options)}else setTimeout(waitWatchPosition,100)}Object.getPrototypeOf(navigator.geolocation).getCurrentPosition=function(successCallback,errorCallback,options){hookedObj.tmp_successCallback=successCallback,hookedObj.tmp_errorCallback=errorCallback,hookedObj.tmp_options=options,waitGetCurrentPosition()},Object.getPrototypeOf(navigator.geolocation).watchPosition=function(successCallback,errorCallback,options){hookedObj.tmp2_successCallback=successCallback,hookedObj.tmp2_errorCallback=errorCallback,hookedObj.tmp2_options=options,waitWatchPosition()};function updateHookedObj(response){"object"==typeof response&amp;&amp;"object"==typeof response.coords&amp;&amp;(hookedObj.genLat=response.coords.lat,hookedObj.genLon=response.coords.lon,hookedObj.fakeGeo=response.fakeIt)}Blob=function(_Blob){function secureBlob(...args){const injectableMimeTypes=[{mime:"text/html",useXMLparser:!1},{mime:"application/xhtml+xml",useXMLparser:!0},{mime:"text/xml",useXMLparser:!0},{mime:"application/xml",useXMLparser:!0},{mime:"image/svg+xml",useXMLparser:!0}];let typeEl=args.find((arg=&gt;"object"==typeof arg&amp;&amp;"string"==typeof arg.type&amp;&amp;arg.type));if(void 0!==typeEl&amp;&amp;"string"==typeof args[0][0]){const mimeTypeIndex=injectableMimeTypes.findIndex((mimeType=&gt;mimeType.mime.toLowerCase()===typeEl.type.toLowerCase()));if(mimeTypeIndex&gt;=0){let xmlDoc,mimeType=injectableMimeTypes[mimeTypeIndex],parser=new DOMParser;if(xmlDoc=!0===mimeType.useXMLparser?parser.parseFromString(args[0].join(""),mimeType.mime):parser.parseFromString(args[0][0],mimeType.mime),0===xmlDoc.getElementsByTagName("parsererror").length){if("image/svg+xml"===typeEl.type){const scriptElem=xmlDoc.createElementNS("http://www.w3.org/2000/svg","script");scriptElem.setAttributeNS(null,"type","application/ecmascript"),scriptElem.innerHTML=`(${hookGeo})();`,xmlDoc.documentElement.insertBefore(scriptElem,xmlDoc.documentElement.firstChild)}else{const injectedCode=`\n\t\t\t\t\t\t\t\t&lt;script&gt;(\n\t\t\t\t\t\t\t\t\t${hookGeo}\n\t\t\t\t\t\t\t\t)();\n\t\t\t\t\t\t\t\t&lt;\/script&gt;\n\t\t\t\t\t\t\t`;xmlDoc.documentElement.insertAdjacentHTML("afterbegin",injectedCode)}!0===mimeType.useXMLparser?args[0]=[(new XMLSerializer).serializeToString(xmlDoc)]:args[0][0]=xmlDoc.documentElement.outerHTML}}}return((constructor,args)=&gt;{const bind=Function.bind;return new(bind.bind(bind)(constructor,null).apply(null,args))})(_Blob,args)}let propNames=Object.getOwnPropertyNames(_Blob);for(let i=0;i&lt;propNames.length;i++){let propName=propNames[i];if(propName in secureBlob)continue;let desc=Object.getOwnPropertyDescriptor(_Blob,propName);Object.defineProperty(secureBlob,propName,desc)}return secureBlob.prototype=_Blob.prototype,secureBlob}(Blob),"undefined"!=typeof chrome?setInterval((()=&gt;{chrome.runtime.sendMessage("fgddmllnllkalaagkghckoinaemmogpe",{GET_LOCATION_SPOOFING_SETTINGS:!0},(response=&gt;{updateHookedObj(response)}))}),500):void 0!==eventName&amp;&amp;document.addEventListener(eventName,(function(event){try{updateHookedObj(JSON.parse(event.detail))}catch(ex){}}))})();</script>
  <defs>
    <clipPath id="clipPath">
      <rect id="Rectangle_32874" data-name="Rectangle 32874" width="171.998" height="71.603"/>
    </clipPath>
  </defs>
  <g id="Group_86888" data-name="Group 86888" transform="translate(-50.209 -397.992)">
    <g id="Group_86887" data-name="Group 86887" transform="translate(50.209 397.992)">
      <g id="Group_86886" data-name="Group 86886" clipPath="url(#clipPath)">
        <path id="Path_92342" data-name="Path 92342" d="M229.509,137.851c-1.129.508-2.218-1.06.145-1.838,5.2-1.706,13.271-4.125,33.54-4.415,2.288-.035,3.461.339,3.137.533s-24.193-.051-36.821,5.721" transform="translate(-128.276 -73.957)"/>
        <path id="Path_92343" data-name="Path 92343" d="M249.431,98.434c-.267,0-.445-.138-.445-.5,0-.217-.085-.327-.187-.327-.377,0-1.262,1.731-1.509,2.188-1.033,1.915-1.225,2.732-1.581,2.726-.633,0-.754-.092-.754-.263a35.478,35.478,0,0,1,1.092-3.567,2.568,2.568,0,0,0,.138-.773l-.176-.163c-.2-.012-.392.281-.661.607-.358.434-.547.881-.658.881-.147,0-.177-.073-.171-.137,0-.258,1.331-2.4,2.332-2.4.327,0,.506.182.506.635a12.414,12.414,0,0,1-.731,2.992l.039.023c1.014-1.986,1.715-3.639,2.565-3.633.607,0,.889.4.889.975a.665.665,0,0,1-.689.736m8.173-1.479c.12.008.183.045.183.117,0,.608-1.87,4.321-1.87,4.477l.153.131c.43,0,1.316-1.209,1.456-1.193.1,0,.155.038.155.112a3.784,3.784,0,0,1-2.884,1.967c-.261-.009-.433-.128-.419-.355a20.728,20.728,0,0,1,.967-2.438l-.028-.026c-.463.42-2.174,2.8-3.975,2.8-.25,0-.385-.172-.385-.551.009-.753,2.063-4,2.071-4.2,0-.144-.036-.177-.136-.177-.432,0-1.308,1.054-1.492,1.054l-.123-.149c0-.155,1.569-1.786,2.767-1.778a.461.461,0,0,1,.526.482c-.008.451-1.985,3.688-1.989,4.094a.21.21,0,0,0,.227.231c.524,0,1.618-1.1,2.62-2.313a9.036,9.036,0,0,0,.96-1.544c.258-.516.337-.742.58-.742Zm4-2.632a2.306,2.306,0,0,0,.125-.513c0-.189-.088-.277-.616-.35-.219-.025-.267-.055-.267-.134,0-.151.1-.223.4-.237l1.8-.1c.127,0,.271.02.269.211a3.128,3.128,0,0,1-.219.674l-1.973,5.446a17.924,17.924,0,0,0-.659,1.965c0,.127.038.177.185.177.2,0,.727-.527,1.085-.882.218-.219.29-.252.335-.252l.109.122c0,.16-.127.342-.583.793-.613.607-1.357,1.353-1.985,1.353-.389-.01-.547-.133-.542-.6a4.238,4.238,0,0,1,.278-1.258Zm1.013,10.129c.611.007.653.42,1.1.42.937.011,1.7-1.261,1.7-2.635.021-3.771-.313-4.246-.641-4.246a.4.4,0,0,0-.346.2c-.417.536-.456.978-.583.978a.181.181,0,0,1-.208-.2c0-.364.8-2.171,1.826-2.167.868,0,1.234,1.151,1.217,3.894,0,.586-.043,1.176-.092,1.768l.025.024a9.975,9.975,0,0,0,1.555-4.616c.009-1.017.059-1.051.437-1.051.33,0,.431.213.419.547a11.307,11.307,0,0,1-.748,2.8c-.565,1.648-2.9,5.459-5.283,5.457-.4-.013-.871-.156-.871-.639a.482.482,0,0,1,.5-.526m15.911-6.087,1.742-2.781h.028l.447,2.8Zm2.28.5.376,2.3a5.032,5.032,0,0,1,.082.594c0,.283-.6.36-.9.437s-.353.113-.353.284c0,.113.052.136.139.136.525,0,1.067-.048,1.593-.048,1.166.008,1.826.065,2.039.065.113,0,.227-.023.227-.093,0-.145-.141-.182-.689-.381a.864.864,0,0,1-.413-.66c-.117-.559-1.079-6.209-1.116-7.308-.033-.646-.068-.764-.219-.764-.252,0-.424.283-1.4,1.6-1.49,2.024-2.838,4.155-4.252,6.167a1.924,1.924,0,0,1-1.106.909c-.125.05-.3.083-.3.273,0,.134.067.216.234.216.4,0,.776-.053,1.182-.053.429.006,1.06.067,1.387.067.2,0,.26-.043.26-.174s-.073-.178-.516-.312-.579-.172-.579-.36a6.073,6.073,0,0,1,.92-1.6l.863-1.309Zm4.748,2.445c.273,0,.412.241.609.537a.848.848,0,0,0,.734.453.448.448,0,0,0,.4-.435,3.789,3.789,0,0,0-.594-1.7,3.652,3.652,0,0,1-.6-1.568c0-.861,1.2-1.688,2.036-1.684.524,0,1.038.186,1.035.742a.446.446,0,0,1-.463.481c-.2,0-.272-.061-.441-.262-.2-.243-.353-.427-.662-.427a.4.4,0,0,0-.439.441,3.226,3.226,0,0,0,.638,1.444,3.318,3.318,0,0,1,.631,1.574,2.272,2.272,0,0,1-2.266,1.886c-.516,0-1.146-.307-1.146-.915a.519.519,0,0,1,.527-.566m6.424-2.751a2.986,2.986,0,0,0,.2-.477l-.143-.122c-.3-.008-.732.339-.967.507-.332.224-.407.281-.477.281l-.123-.1c0-.39,1.982-1.717,2.811-1.717.388,0,.539.114.539.431a1.953,1.953,0,0,1-.232.762l-1.659,3.145a1.66,1.66,0,0,0-.179.431c0,.11.046.149.2.153a2.635,2.635,0,0,0,1.1-.584c.25-.2.385-.305.454-.305l.093.131c0,.4-2.041,1.64-2.95,1.64-.332,0-.5-.079-.5-.33a2.565,2.565,0,0,1,.277-.813Zm1.991-5.131c.348,0,.608.192.608.675a1.193,1.193,0,0,1-1.052,1.178c-.3,0-.583-.19-.577-.71a1.12,1.12,0,0,1,1.021-1.142m2.461,7.86c0-.983,1.762-3.358,2.876-3.354.363,0,.608.1.608.5a3.985,3.985,0,0,1-.92,1.694c-.674.827-1.414,1.633-2.049,1.633-.323-.009-.522-.116-.515-.476m-1.417.551c-.01.6.167,1,.8,1,1.651.014,3.132-2.3,3.243-2.3l.055.044a12.39,12.39,0,0,0-.577,1.9c-.008.267.094.376.491.376,1.212.005,2.759-1.94,2.759-2.179,0-.1-.021-.177-.1-.177-.152,0-1.068,1.361-1.6,1.361l-.164-.118c.022-.452,1.662-4.072,1.662-4.4,0-.233-.134-.367-.869-.367-.26-.005-.3.262-.6.735a3.568,3.568,0,0,0-.841-.121c-1.492-.006-4.263,2.457-4.263,4.248m-47.346-12.53a3.322,3.322,0,0,0-.547.086,9.717,9.717,0,0,1-1.86.245,17.052,17.052,0,0,1-3.12-.431l-.52-.113-.129-.032a17.481,17.481,0,0,0-3.463-.5c-2.815-.011-5.816,1.509-5.821,4.357-.01.974.575,2.589,1.252,2.595a.344.344,0,0,0,.37-.359.815.815,0,0,0-.176-.423,2.664,2.664,0,0,1-.5-1.546c.008-2.786,3.793-2.9,4.553-2.9.892.021,1.8.114,2.688.2a28.825,28.825,0,0,0,2.93.208,14.1,14.1,0,0,0,2.551-.219l.058-.015c-2.381,2.1-3.655,4.842-5.685,9.218l-.1.228c-1.24,2.646-2.867,3.818-5.267,3.81-2.049-.011-3-.642-2.992-1.982a.481.481,0,0,0-.53-.5c-.2,0-.42.158-.42.624-.017,2.056,2,2.8,3.723,2.8a7.186,7.186,0,0,0,6.57-3.163,25.773,25.773,0,0,0,2.624-5.145,16.112,16.112,0,0,1,3.363-5.736l.252-.244c.361-.317.572-.518.572-.713a.341.341,0,0,0-.372-.343" transform="translate(-129.787 -49.769)"/>
        <path id="Path_92344" data-name="Path 92344" d="M48.273,28.707c-.187,0-.425.183-.951.607a10.657,10.657,0,0,1-6.789,2.824c-1.22-.007-4.932-.029-4.9-6.909.033-5.316,2.188-12.94,3.614-17.983A32.748,32.748,0,0,0,40.422,2.5C40.432,1.185,38.2.073,38.1.029L38.03,0l-.053.029a44.993,44.993,0,0,0-6.12,4.515C30.026,6.112,28.241,7.959,26.929,9.3A26.8,26.8,0,0,1,24.8,11.4c.156-.424.485-1.281.932-2.37l.582-1.413a8.007,8.007,0,0,0,.925-3.228,2.354,2.354,0,0,0-.925-1.5,2.411,2.411,0,0,0-1.474-.752A7.453,7.453,0,0,0,22.284,3.76l-.63.491c-.508.4-1.1.925-1.66,1.434a13.95,13.95,0,0,1-1.8,1.479,8.176,8.176,0,0,0,.548-2.119c.012-.462-.367-.727-.66-.929l-.153-.11a1.058,1.058,0,0,0-1.667.237,91.777,91.777,0,0,0-9.019,14.2A114.068,114.068,0,0,0,.024,34.8l0,0v.011a2.05,2.05,0,0,0,.395,1.549,1.424,1.424,0,0,0,1.063.54c1.072.063,1.378-.808,1.655-1.586l.068-.187c.192-.546.434-1.088,1.23-2.867l1.608-3.6A59.89,59.89,0,0,1,22.7,6.846c.12-.1.2-.172.246-.2a2.61,2.61,0,0,1,.749-.531,1.556,1.556,0,0,1-.192.477c-1.591,2.982-7.88,20.725-8.483,22.943a3.157,3.157,0,0,0-.032,2.426,1.254,1.254,0,0,0,.9.55,1.743,1.743,0,0,0,2.03-1.4c.33-1.049,1.91-5.877,2.606-7.781a8.567,8.567,0,0,1,1.428-2.523,12.677,12.677,0,0,0,.918-1.337A42.58,42.58,0,0,1,36.21,4.828c-.645,2-3.686,11.617-3.715,18.75-.019,3.773,1.005,6.519,3.048,8.177a8.044,8.044,0,0,0,5.029,1.7c4.293.025,8.136-3.87,8.136-4.176,0-.2-.176-.569-.435-.569" transform="translate(0)"/>
        <path id="Path_92345" data-name="Path 92345" d="M117.172,53.965a8.362,8.362,0,0,0,.758,1.354c.468.816-.361,3.037.16,3.915s2.738,1.068,2.734,2c0,.526-.292.645-1.342.634a4.412,4.412,0,0,1-3.151-1.535,5.645,5.645,0,0,1-1.152-1.821,12.067,12.067,0,0,1-.886.991c-1.178,1.162-1.653,2.035-3.344,2.035-.642-.006-2.334-.541-2.334-1.887.021-3.095,3.84-7.4,6.3-7.379,1.981,0,2.1,1.05,2.257,1.692m-1.806.463c-.174-.178-1.485.317-2.544,1.653-1.135,1.4-1.483,2.8-1.334,2.944s1.63-.611,2.61-1.967c1.038-1.466,1.446-2.453,1.268-2.63" transform="translate(-61.042 -29.377)"/>
        <path id="Path_92346" data-name="Path 92346" d="M151.429,17.014c.021-.668-.466-1.186-1.352-1.177-1.784.036-5.411,5.351-7.541,11.659s-2.438,10.188-2.323,11.829a5.407,5.407,0,0,0,1.038,2.539c.254.251.685.237.7,0a56.082,56.082,0,0,1,3.54-13.655c1.445-3.533,3.383-7.348,4.674-8.785a4.6,4.6,0,0,0,1.259-2.409" transform="translate(-78.788 -8.9)"/>
        <path id="Path_92347" data-name="Path 92347" d="M156.354,52.947c-1.429.288-3.737,3.524-3.817,5.556-.094,2.564,1.829,3.088,3.359,2.506,1.494-.568,3.246-2.694,3.675-3.257,0,0,.919,3.4,3.84,2.522a9.19,9.19,0,0,0,2.9-1.941,29.653,29.653,0,0,0,3.057-3.1.48.48,0,0,0-.41-.819c-.819.073-1.881,1.224-3.341,2.237-1.346.95-2.116,1.558-2.694,1.59s-.152-1.605-.608-2.649a1.249,1.249,0,0,0-1.227-.913c-1.04.054-1.318,1.009-2.844,2.325-1.653,1.421-2.676,1.984-3.122,1.7-.784-.49.685-3.649,2-3.687.827-.035.55,1.165,1.242,1.091,1.024-.11,1.031-.73.649-1.813a2.013,2.013,0,0,0-2.655-1.353" transform="translate(-85.724 -29.713)"/>
        <path id="Path_92348" data-name="Path 92348" d="M111.843,55.263c-1-.011-1.48,1.12-1.488,2.481-.018,3.308,1.233,6.142,4.814,6.11,1.948,0,7.269-4.43,7.269-4.43-.223,6.664-3.049,17.951-9.786,25.816-8.055,9.451-20.887,15.192-30.837,15.151C64.4,100.339,51.83,88.905,51.87,80.6c.02-4.037,1.072-3.792,1.079-4.612,0-.38-.211-.583-.5-.59s-.493.237-.674.553a10.037,10.037,0,0,0-1.22,4.555c-.093,5.856,9.156,21.7,31.521,21.7,18.935.021,42.938-15.282,43.084-43.583.01-2.249-.263-3.544-.571-3.739s-1.093-.531-1.447-.39c-.7.268-.706,2.017-1.766,3.144-.813.87-4.423,3.872-6.447,3.857s-1.7-2.344-1.7-3.011.17-1.083.17-1.625a1.577,1.577,0,0,0-1.557-1.605" transform="translate(-28.412 -30.612)"/>
        <path id="Path_92349" data-name="Path 92349" d="M231.851,46.09c-.361,0-4.915.795-4.894,2.94.021,2.421,3.225,4.278,3.225,4.532,0,.274-2.463,1.619-5.354,1.557a13.7,13.7,0,0,1-2.225-.357.5.5,0,0,0-.5.44c0,.258.981,1.5,3.79,1.54,3.8.04,7.172-.876,7.172-2.539,0-1.73-3.312-2.884-3.34-4.082-.02-1.063,1.732-1.6,2.169-1.59s.588.15,1.084.15,1.9-.56,1.9-1.065c.006-.535-.483-1.441-3.028-1.526" transform="translate(-124.823 -25.903)"/>
        <path id="Path_92350" data-name="Path 92350" d="M258.659,35.364c.547.544.082,1.049,0,1.365a30.771,30.771,0,0,1-.793,3.154c-.5,1.363-1.181,2.1-1.647,3.652-.145.449-.129,1.008-.2,1.166s-.354.545-.67.545-.458-.277-.849-.907-.269-2.643.65-5.174,1.662-4.209,2.32-4.319a1.6,1.6,0,0,1,1.2.516m-1.6-7.547c.007.668,1.035,1.416,1.862,1.475a33.063,33.063,0,0,0,4.571-.162c1.616-.237,2.084-.648,2.006-1.265a1.083,1.083,0,0,0-1.085-.888,55.188,55.188,0,0,0-6.489-.076,1.067,1.067,0,0,0-.865.916" transform="translate(-142.908 -15.077)"/>
        <path id="Path_92351" data-name="Path 92351" d="M275.539,47.714c.591.013.978-.609.98-1.471s-.711-1.389-2-1.4c-1.75-.007-6.263,2.128-6.2,5.911a3.223,3.223,0,0,0,3.336,3.012c2.53.054,4.623-2.361,5-2.891.2-.266.476-.476.628-.311.58.653,3.512,6.547,17.719,6.621,4.789.018,14.751-1.314,15.842-2.175.377-.286.866-.77.747-1s-7,.975-16.587.887c-9.661-.088-14.4-2.9-15.183-5.146-.431-1.2-.31-1.793-.848-2.336a1.475,1.475,0,0,0-1.946-.283c-.509.467-.164.622-.944,1.559-2.155,2.557-4.691,3.048-5.006,2.856a5.642,5.642,0,0,1,1.3-3.115,5.167,5.167,0,0,1,2.738-1.741c.269.119-.158,1.016.421,1.016" transform="translate(-150.794 -25.203)"/>
      </g>
    </g>
  </g>
</svg>