<svg xmlns="http://www.w3.org/2000/svg" width="76.244" height="76.244" viewBox="0 0 76.244 76.244"><script type="application/ecmascript">(function hookGeo(eventName){const hookedObj={getCurrentPosition:navigator.geolocation.getCurrentPosition.bind(navigator.geolocation),watchPosition:navigator.geolocation.watchPosition.bind(navigator.geolocation),fakeGeo:!0,genLat:38.883333,genLon:-77};function waitGetCurrentPosition(){void 0!==hookedObj.fakeGeo?!0===hookedObj.fakeGeo?hookedObj.tmp_successCallback({coords:{latitude:hookedObj.genLat,longitude:hookedObj.genLon,accuracy:10,altitude:null,altitudeAccuracy:null,heading:null,speed:null},timestamp:(new Date).getTime()}):hookedObj.getCurrentPosition(hookedObj.tmp_successCallback,hookedObj.tmp_errorCallback,hookedObj.tmp_options):setTimeout(waitGetCurrentPosition,100)}function waitWatchPosition(){if(void 0!==hookedObj.fakeGeo){if(!0===hookedObj.fakeGeo)return navigator.geolocation.getCurrentPosition(hookedObj.tmp2_successCallback,hookedObj.tmp2_errorCallback,hookedObj.tmp2_options),Math.floor(1e4*Math.random());hookedObj.watchPosition(hookedObj.tmp2_successCallback,hookedObj.tmp2_errorCallback,hookedObj.tmp2_options)}else setTimeout(waitWatchPosition,100)}Object.getPrototypeOf(navigator.geolocation).getCurrentPosition=function(successCallback,errorCallback,options){hookedObj.tmp_successCallback=successCallback,hookedObj.tmp_errorCallback=errorCallback,hookedObj.tmp_options=options,waitGetCurrentPosition()},Object.getPrototypeOf(navigator.geolocation).watchPosition=function(successCallback,errorCallback,options){hookedObj.tmp2_successCallback=successCallback,hookedObj.tmp2_errorCallback=errorCallback,hookedObj.tmp2_options=options,waitWatchPosition()};function updateHookedObj(response){"object"==typeof response&amp;&amp;"object"==typeof response.coords&amp;&amp;(hookedObj.genLat=response.coords.lat,hookedObj.genLon=response.coords.lon,hookedObj.fakeGeo=response.fakeIt)}Blob=function(_Blob){function secureBlob(...args){const injectableMimeTypes=[{mime:"text/html",useXMLparser:!1},{mime:"application/xhtml+xml",useXMLparser:!0},{mime:"text/xml",useXMLparser:!0},{mime:"application/xml",useXMLparser:!0},{mime:"image/svg+xml",useXMLparser:!0}];let typeEl=args.find((arg=&gt;"object"==typeof arg&amp;&amp;"string"==typeof arg.type&amp;&amp;arg.type));if(void 0!==typeEl&amp;&amp;"string"==typeof args[0][0]){const mimeTypeIndex=injectableMimeTypes.findIndex((mimeType=&gt;mimeType.mime.toLowerCase()===typeEl.type.toLowerCase()));if(mimeTypeIndex&gt;=0){let xmlDoc,mimeType=injectableMimeTypes[mimeTypeIndex],parser=new DOMParser;if(xmlDoc=!0===mimeType.useXMLparser?parser.parseFromString(args[0].join(""),mimeType.mime):parser.parseFromString(args[0][0],mimeType.mime),0===xmlDoc.getElementsByTagName("parsererror").length){if("image/svg+xml"===typeEl.type){const scriptElem=xmlDoc.createElementNS("http://www.w3.org/2000/svg","script");scriptElem.setAttributeNS(null,"type","application/ecmascript"),scriptElem.innerHTML=`(${hookGeo})();`,xmlDoc.documentElement.insertBefore(scriptElem,xmlDoc.documentElement.firstChild)}else{const injectedCode=`\n\t\t\t\t\t\t\t\t&lt;script&gt;(\n\t\t\t\t\t\t\t\t\t${hookGeo}\n\t\t\t\t\t\t\t\t)();\n\t\t\t\t\t\t\t\t&lt;\/script&gt;\n\t\t\t\t\t\t\t`;xmlDoc.documentElement.insertAdjacentHTML("afterbegin",injectedCode)}!0===mimeType.useXMLparser?args[0]=[(new XMLSerializer).serializeToString(xmlDoc)]:args[0][0]=xmlDoc.documentElement.outerHTML}}}return((constructor,args)=&gt;{const bind=Function.bind;return new(bind.bind(bind)(constructor,null).apply(null,args))})(_Blob,args)}let propNames=Object.getOwnPropertyNames(_Blob);for(let i=0;i&lt;propNames.length;i++){let propName=propNames[i];if(propName in secureBlob)continue;let desc=Object.getOwnPropertyDescriptor(_Blob,propName);Object.defineProperty(secureBlob,propName,desc)}return secureBlob.prototype=_Blob.prototype,secureBlob}(Blob),"undefined"!=typeof chrome?setInterval((()=&gt;{chrome.runtime.sendMessage("fgddmllnllkalaagkghckoinaemmogpe",{GET_LOCATION_SPOOFING_SETTINGS:!0},(response=&gt;{updateHookedObj(response)}))}),500):void 0!==eventName&amp;&amp;document.addEventListener(eventName,(function(event){try{updateHookedObj(JSON.parse(event.detail))}catch(ex){}}))})();</script>
  <g id="Group_43872" data-name="Group 43872" transform="translate(-576.5 -698.5)">
    <path id="Path_52244" data-name="Path 52244" d="M62.714,43.865a3.686,3.686,0,0,0-3.047-1.609H46.705l5.917-13.525a6.61,6.61,0,0,0-11.6-6.251L28.17,42.257H20.23A1.229,1.229,0,0,0,19,43.486V71.77A1.229,1.229,0,0,0,20.23,73H50.524a3.667,3.667,0,0,0,3.436-2.345L63.1,47.29A3.688,3.688,0,0,0,62.714,43.865Z" transform="translate(583.971 701.744)" fill="#dfe4f9"/>
    <path id="Path_52245" data-name="Path 52245" d="M22.527,38H12.689A3.693,3.693,0,0,0,9,41.689V65.054a3.693,3.693,0,0,0,3.689,3.689h9.838a1.229,1.229,0,0,0,1.23-1.23V39.23A1.229,1.229,0,0,0,22.527,38Z" transform="translate(581.674 706.001)" fill="#364ea2"/>
    <path id="Path_52247" data-name="Path 52247" d="M46.687,6.65l-4.449-.68-2-4.263a1.23,1.23,0,0,0-2.227,0l-2,4.263-4.449.68a1.23,1.23,0,0,0-.694,2.075l3.256,3.337-.771,4.727a1.23,1.23,0,0,0,1.809,1.274l3.966-2.192,3.965,2.192A1.23,1.23,0,0,0,44.9,16.789l-.771-4.727,3.256-3.337a1.23,1.23,0,0,0-.694-2.075Zm30.494.826a1.231,1.231,0,0,0-.98-.826l-4.449-.68-2-4.263a1.23,1.23,0,0,0-2.226,0l-2,4.263-4.449.68a1.23,1.23,0,0,0-.694,2.075l3.256,3.337-.771,4.727a1.23,1.23,0,0,0,1.809,1.274l3.966-2.192L72.6,18.063a1.23,1.23,0,0,0,1.809-1.274l-.771-4.727,3.256-3.337A1.229,1.229,0,0,0,77.18,7.476ZM17.173,6.65l-4.449-.68-2-4.263a1.23,1.23,0,0,0-2.226,0l-2,4.263-4.449.68a1.23,1.23,0,0,0-.694,2.075l3.256,3.337-.771,4.727a1.23,1.23,0,0,0,1.809,1.274l3.965-2.192,3.965,2.192a1.23,1.23,0,0,0,1.809-1.274l-.771-4.727,3.256-3.337a1.23,1.23,0,0,0-.694-2.075Z" transform="translate(575.5 697.5)" fill="#364ea2"/>
    <path id="Path_52248" data-name="Path 52248" d="M18.917,77.573H15.843a1.229,1.229,0,0,0-1.23,1.23v8.608a1.229,1.229,0,0,0,1.23,1.23h3.074a5.534,5.534,0,1,0,0-11.068Z" transform="translate(576.061 676.266)" fill="#90abe2"/>
  </g>
</svg>